PathFileType	4	(X/Y/Z)	C:\Users\Basilio\Documents\Thesis Gigler\squatting_fais\c3dfiles\058\SJ_pre2\markers_experimental.trc
DataRate	CameraRate	NumFrames	NumMarkers	Units	OrigDataRate	OrigDataStartFrame	OrigNumFrames
200.000000	200.000000	4	61	mm	200.000000	0	1272
Frame#	Time	FHD			LBHD			RBHD			C7			T10			CLAV			LSHO			LUUPA			LMUPA			LDUPA			LLEP			LMEP			LRAD			LUL			LRFIN			RSHO			RUPA1			RMUPA			RDUPA			RLEP			RMEP			RRAD			RUL			RUFIN			LASI			RASI			USACR			LSACR			RSACR			LTHI1			LTHI2			LTHI3			LTHI4			LLFC			LMFC			LTIB1			LTIB2			LTIB3			LTIB4			LLMAL			LMMAL			LHEE			LMT1			LMT2			LMT5			RTHI			RTHI2			RTHI3			RTHI4			RLFC			RMFC			RTIB1			RTIB2			RTIB3			RTIB4			RLMAL			RMMAL			RHEE			RMT1			RMT2			RMT5			
		X1	Y1	Z1	X2	Y2	Z2	X3	Y3	Z3	X4	Y4	Z4	X5	Y5	Z5	X6	Y6	Z6	X7	Y7	Z7	X8	Y8	Z8	X9	Y9	Z9	X10	Y10	Z10	X11	Y11	Z11	X12	Y12	Z12	X13	Y13	Z13	X14	Y14	Z14	X15	Y15	Z15	X16	Y16	Z16	X17	Y17	Z17	X18	Y18	Z18	X19	Y19	Z19	X20	Y20	Z20	X21	Y21	Z21	X22	Y22	Z22	X23	Y23	Z23	X24	Y24	Z24	X25	Y25	Z25	X26	Y26	Z26	X27	Y27	Z27	X28	Y28	Z28	X29	Y29	Z29	X30	Y30	Z30	X31	Y31	Z31	X32	Y32	Z32	X33	Y33	Z33	X34	Y34	Z34	X35	Y35	Z35	X36	Y36	Z36	X37	Y37	Z37	X38	Y38	Z38	X39	Y39	Z39	X40	Y40	Z40	X41	Y41	Z41	X42	Y42	Z42	X43	Y43	Z43	X44	Y44	Z44	X45	Y45	Z45	X46	Y46	Z46	X47	Y47	Z47	X48	Y48	Z48	X49	Y49	Z49	X50	Y50	Z50	X51	Y51	Z51	X52	Y52	Z52	X53	Y53	Z53	X54	Y54	Z54	X55	Y55	Z55	X56	Y56	Z56	X57	Y57	Z57	X58	Y58	Z58	X59	Y59	Z59	X60	Y60	Z60	X61	Y61	Z61	

1	0	-175.1027069091797	1778.086791992188	-815.4055786132815	-338.9633483886719	1711.89501953125	-854.5032348632815	-195.0561065673829	1786.2666015625	-956.955017089844	-357.4288330078126	1574.349731445313	-894.941833496094	-383.4197692871094	1261.33251953125	-887.708923339844	-204.4750518798829	1513.456665039063	-874.326354980469	-200.1895599365235	1569.860961914063	-1045.438720703125	-324.3409423828126	1463.66650390625	-1219.340454101563	-295.6929016113282	1421.573608398438	-1226.051147460938	-344.9732666015626	1409.428344726563	-1259.126586914063	-376.7306823730469	1336.23486328125	-1293.67333984375	-439.0092163085939	1335.144897460938	-1247.772583007813	-352.7319335937501	1154.009155273438	-1085.61083984375	-327.6905212402344	1098.575805664063	-1139.424438476563	-280.5505676269532	1162.699829101563	-1073.109375	-241.7754058837891	1570.95947265625	-700.5791015625001	-391.4013671875001	1455.717163085938	-558.3587646484376	-363.1795654296876	1413.989379882813	-553.0111694335939	-412.1536254882814	1397.483154296875	-522.4956665039064	-448.0928039550782	1341.046142578125	-495.848358154297	-502.5161743164064	1319.694213867188	-564.2616577148439	-337.8932495117188	1165.412719726563	-668.5510864257814	-318.3047790527344	1119.156494140625	-605.5174560546876	-262.6927795410157	1147.713134765625	-690.2255249023439	-210.8876953125001	1047.842163085938	-1002.266845703125	-212.3209533691407	1050.424438476563	-763.4912719726564	-397.666717529297	1140.531616210938	-876.5756835937502	-406.1981201171876	1108.966430664063	-903.709411621094	-405.399627685547	1109.128295898438	-846.8089599609377	-300.7479553222657	779.8362426757815	-1102.863647460938	-281.0061645507813	697.1926269531251	-1107.187866210938	-235.5171661376954	692.4202880859376	-1087.033935546875	-315.4645080566407	648.4050903320314	-1101.910400390625	-324.4573669433594	547.3821411132814	-1101.079956054688	-290.8381042480469	523.3936767578126	-984.1666259765627	-271.3105163574219	409.0679626464845	-1089.234741210938	-330.5578308105469	381.0309448242188	-1143.178100585938	-289.0217895507813	369.4397888183594	-1125.822509765625	-287.6819763183594	284.6664123535157	-1112.673461914063	-352.5676269531251	90.47369384765626	-1144.474853515625	-316.5654602050782	96.43928527832034	-1056.731079101563	-407.1423339843751	49.75439834594728	-1090.648681640625	-180.834213256836	62.81416702270509	-1106.805419921875	-185.3074645996094	63.10835647583009	-1154.279174804688	-240.1668395996094	37.56993484497071	-1201.668334960938	-346.2827148437501	860.8999023437502	-681.9971923828126	-314.3964233398438	803.967956542969	-669.1230468750001	-281.2243957519532	802.0227050781252	-670.3910522460939	-348.5093078613282	726.4125976562501	-680.2894897460939	-360.0975646972657	544.5825195312501	-681.7835083007814	-302.9708557128907	514.5466308593751	-802.119323730469	-288.9761657714844	329.7210693359376	-722.4807739257814	-335.8050537109376	260.6597290039063	-654.2857055664064	-294.7798156738282	252.793441772461	-676.8339843750001	-292.1195373535157	202.6052246093751	-703.5593872070314	-351.8939819335938	94.29568481445314	-660.7132568359376	-303.5848388671876	106.0589141845703	-740.8953857421876	-397.6873474121095	48.5709571838379	-728.2726440429689	-185.1955871582032	57.30241775512697	-675.5916137695314	-197.8577270507813	62.18268966674806	-625.0398559570314	-252.4872741699219	28.07580375671387	-584.4739379882814	
2	0.005	-175.5284271240235	1778.161499023438	-815.5218505859377	-339.2639770507813	1711.832641601563	-854.6761474609377	-195.415512084961	1786.271850585938	-957.1508789062502	-357.6796569824219	1574.34521484375	-894.999938964844	-383.6062927246094	1261.287231445313	-887.7639770507815	-204.6497802734376	1513.471069335938	-874.3950805664065	-200.2948455810547	1569.824584960938	-1045.522094726563	-324.6703186035157	1463.533569335938	-1219.401733398438	-295.9185485839844	1421.505981445313	-1226.070068359375	-345.1616516113282	1409.328735351563	-1259.19287109375	-376.8063659667969	1336.118774414063	-1293.7724609375	-439.2096557617189	1335.013549804688	-1247.84033203125	-352.7242431640626	1153.855834960938	-1085.678955078125	-327.7319335937501	1098.515380859375	-1139.484497070313	-280.5210876464844	1162.619750976563	-1073.156005859375	-242.0785827636719	1570.967651367188	-700.6333618164064	-391.7011108398439	1455.7080078125	-558.4719848632814	-363.6129455566407	1414.093872070313	-552.9556884765626	-412.4600219726564	1397.4462890625	-522.5942382812501	-448.5951232910157	1341.115234375	-495.8713989257814	-502.853973388672	1319.669189453125	-564.3734741210939	-338.1647338867188	1165.41162109375	-668.5859985351564	-318.4173889160157	1119.194458007813	-605.5323486328126	-262.8305358886719	1147.723266601563	-690.2581787109376	-211.0491943359376	1047.80078125	-1002.265808105469	-212.4661407470704	1050.517333984375	-763.4447631835939	-397.8055114746095	1140.531005859375	-876.6482543945315	-406.2955627441407	1108.909057617188	-903.7783203125002	-405.559539794922	1109.076538085938	-846.862243652344	-300.7672729492188	779.8479614257815	-1102.861572265625	-281.1137695312501	697.1987304687501	-1107.131225585938	-235.6600494384766	692.4135131835939	-1086.989868164063	-315.5616455078126	648.4126586914064	-1101.913208007813	-324.6100158691407	547.3340454101564	-1101.061645507813	-291.1520385742188	523.4564208984376	-984.178161621094	-271.3724975585938	409.0479125976564	-1089.236450195313	-330.5989074707032	381.0440979003907	-1143.152099609375	-289.0906066894532	369.4795837402344	-1125.849853515625	-287.7142028808594	284.6839904785157	-1112.608520507813	-352.5446777343751	90.46053314208986	-1144.477172851563	-316.5679626464844	96.46547698974612	-1056.733154296875	-407.1217041015626	49.77595901489259	-1090.668701171875	-180.8411560058594	62.7702102661133	-1106.80078125	-185.2633056640625	63.12582778930665	-1154.29443359375	-240.1519775390626	37.59434509277344	-1201.651000976563	-346.4511108398438	860.9084472656252	-682.1018676757814	-314.7044067382813	803.9555664062502	-669.2357177734376	-281.3630676269532	801.975769042969	-670.5196533203126	-348.8367614746094	726.4047851562501	-680.3628540039064	-360.3941650390626	544.5020141601564	-681.8313598632814	-303.2070312500001	514.4872436523439	-802.1319580078127	-289.1971740722657	329.6995239257813	-722.4440917968751	-335.9019165039063	260.6634521484376	-654.3853759765626	-295.0092163085938	252.863021850586	-677.0747680664064	-292.2890625000001	202.6420440673829	-703.4968261718751	-351.8891296386719	94.28618621826173	-660.7113037109376	-303.5848388671876	106.0589141845703	-740.8953857421876	-397.6818847656251	48.55821990966798	-728.2876586914064	-185.2036743164063	57.31328201293947	-675.6071777343751	-197.8819274902344	62.202449798584	-625.0029296875001	-252.4851226806641	28.07840156555176	-584.4701538085939	
3	0.01	-175.759521484375	1778.226318359375	-815.7600708007815	-339.4674682617188	1711.8154296875	-854.8935546875002	-195.7857360839844	1786.245361328125	-957.3562011718752	-357.8966369628907	1574.29736328125	-895.1206054687502	-383.8164672851563	1261.292114257813	-887.869567871094	-204.9783630371094	1513.438232421875	-874.451843261719	-200.5333099365235	1569.647705078125	-1045.615844726563	-324.8047790527344	1463.41357421875	-1219.474365234375	-296.1418151855469	1421.383666992188	-1226.140014648438	-345.5130615234376	1409.238037109375	-1259.2294921875	-378.2402648925782	1335.467895507813	-1293.276000976563	-439.2433166503907	1334.826416015625	-1247.938232421875	-352.7331237792969	1153.652587890625	-1085.779418945313	-327.7761535644532	1098.418212890625	-1139.529418945313	-280.6605224609376	1162.567260742188	-1073.213134765625	-242.3822784423829	1571.039794921875	-700.6744995117189	-392.1604003906251	1455.68505859375	-558.4962768554689	-363.9119873046876	1414.194091796875	-552.9656982421876	-412.8021545410157	1397.498168945313	-522.6468505859376	-448.991668701172	1341.0810546875	-495.986785888672	-503.2036132812501	1319.607177734375	-564.4782104492189	-338.3694152832032	1165.441528320313	-668.6086425781251	-318.6633911132813	1119.203247070313	-605.5275878906251	-263.1074523925782	1147.7724609375	-690.2892456054689	-211.1115722656251	1047.804565429688	-1002.283752441406	-212.7831726074219	1050.4794921875	-763.4082031250001	-397.9799804687501	1140.491455078125	-876.704772949219	-406.4273376464845	1108.910888671875	-903.8245849609377	-405.7351989746095	1109.021118164063	-846.9497680664065	-300.8612365722657	779.8235473632815	-1102.887939453125	-281.1832580566407	697.1934814453126	-1107.111694335938	-235.741439819336	692.4193725585939	-1086.946655273438	-315.6114807128907	648.4441528320314	-1101.909545898438	-324.7050170898438	547.3814086914064	-1101.094848632813	-291.2087097167969	523.4617309570314	-984.180358886719	-271.4144592285157	409.107391357422	-1089.180786132813	-330.6899414062501	381.0357971191407	-1143.163452148438	-289.1589050292969	369.4273681640626	-1125.80859375	-287.7186584472657	284.7065429687501	-1112.613159179688	-352.5299072265626	90.41868591308595	-1144.471923828125	-316.5823059082032	96.47000885009768	-1056.727416992188	-407.0984497070314	49.74348068237306	-1090.694702148438	-180.8266754150391	62.80044174194337	-1106.811157226563	-185.3252868652344	63.11224746704103	-1154.318481445313	-240.2138214111329	37.55516815185548	-1201.611206054688	-346.6477966308594	860.880310058594	-682.2356567382814	-314.8894348144532	803.909851074219	-669.3027343750001	-281.5430297851563	801.9585571289065	-670.6442871093751	-349.0238037109376	726.4170532226564	-680.4957275390626	-360.6148376464844	544.4648437500001	-681.9165039062501	-303.4843750000001	514.4726562500001	-802.1777954101565	-289.3071899414063	329.6778259277344	-722.4519653320314	-335.9859313964844	260.6827087402344	-654.4053344726564	-295.1984252929688	252.8729095458985	-677.0476074218751	-292.3776245117188	202.7374572753907	-703.5384521484376	-351.9129638671876	94.26755523681642	-660.6973266601564	-303.5076599121094	106.0799560546875	-740.8522949218751	-397.7017211914064	48.56526565551759	-728.2485351562501	-185.2100219726563	57.30234909057619	-675.6080932617189	-197.8811798095704	62.22338485717775	-624.9683227539064	-252.5347747802735	28.04830551147462	-584.4760742187501	
4	0.015	-175.9859161376953	1778.345458984375	-815.990661621094	-339.6350708007813	1711.75146484375	-855.038513183594	-196.0441436767579	1786.237548828125	-957.5225830078127	-358.1359558105469	1574.21435546875	-895.1439208984377	-383.9894714355469	1261.281616210938	-887.920593261719	-205.2713165283204	1513.411865234375	-874.4483032226565	-200.6441192626954	1569.628295898438	-1045.700805664063	-324.9746093750001	1463.300903320313	-1219.551879882813	-296.3570861816407	1421.267822265625	-1226.216430664063	-345.6234741210938	1409.132202148438	-1259.311767578125	-378.2905883789063	1335.311767578125	-1293.3232421875	-439.4067993164064	1334.706298828125	-1247.969482421875	-352.7999572753907	1153.497192382813	-1085.81396484375	-327.8612060546876	1098.304443359375	-1139.564453125	-280.7543029785157	1162.503784179688	-1073.258911132813	-242.5467529296876	1571.0341796875	-700.7730102539064	-392.4432067871095	1455.760498046875	-558.5497436523439	-364.3966064453126	1414.22705078125	-552.9785156250001	-413.2003784179689	1397.573852539063	-522.6781616210939	-449.4375000000001	1341.04736328125	-496.0087890625001	-503.4771423339845	1319.6103515625	-564.6120605468751	-338.6059570312501	1165.469604492188	-668.6165161132814	-318.9568176269532	1119.206909179688	-605.5011596679689	-263.2971801757813	1147.81884765625	-690.2619628906251	-211.2107086181641	1047.759521484375	-1002.264770507813	-212.8463439941407	1050.477172851563	-763.4143066406251	-398.1278686523439	1140.440307617188	-876.7911376953127	-406.5433654785157	1108.852783203125	-903.898132324219	-405.8936462402345	1108.988403320313	-847.0410766601565	-300.9596252441407	779.8364868164065	-1102.866943359375	-281.3044433593751	697.2043457031251	-1107.087280273438	-235.7625427246094	692.4927978515626	-1086.927368164063	-315.7236022949219	648.3978881835939	-1101.91796875	-324.7998657226563	547.3782958984376	-1101.122314453125	-291.2230224609376	523.6303710937501	-984.1530761718752	-271.4482116699219	409.1678771972657	-1089.16259765625	-330.6223144531251	381.0039978027344	-1143.183715820313	-289.2422790527344	369.4305725097657	-1125.763305664063	-287.7403259277344	284.6783142089844	-1112.575073242188	-352.4845275878907	90.44565582275392	-1144.50390625	-316.5624389648438	96.48651885986331	-1056.694946289063	-407.0984802246095	49.74350357055665	-1090.694702148438	-180.8224029541016	62.75608062744142	-1106.775634765625	-185.2815704345703	63.18701553344728	-1154.275512695313	-240.0773620605469	37.60808563232423	-1201.597290039063	-346.9647521972657	860.7788696289065	-682.3249511718751	-315.0166015625001	803.8918457031252	-669.4188232421876	-281.9562072753907	802.0324707031252	-670.6126708984376	-349.1944580078126	726.4082031250001	-680.5984497070314	-361.0182800292969	544.5023193359376	-681.9387817382814	-303.6608276367188	514.4546508789064	-802.2039184570315	-289.5620117187501	329.7196655273438	-722.4439697265626	-336.1833190917969	260.7045898437501	-654.4295654296876	-295.1778564453126	252.896957397461	-676.8276367187501	-292.5043029785157	202.8057098388672	-703.5407714843751	-351.8596191406251	94.23691558837892	-660.6893920898439	-303.5704650878907	106.0823135375977	-740.8051147460939	-397.7544860839845	48.575008392334	-728.2461547851564	-185.2095642089844	57.32829666137697	-675.6041259765626	-197.8979492187501	62.24543380737306	-624.9895019531251	-252.5518798828126	28.06127166748048	-584.4874877929689	
